<?xml version="1.0" encoding="utf-8"?>
<svg xmlns="http://www.w3.org/2000/svg" xmlns:xlink="http://www.w3.org/1999/xlink" style="margin: auto; background: none; display: block; shape-rendering: auto;" width="271px" height="271px" viewBox="0 0 100 100" preserveAspectRatio="xMidYMid">
<g transform="translate(50 50)">
<g>
<animateTransform attributeName="transform" type="rotate" values="0;40" keyTimes="0;1" dur="0.46511627906976744s" repeatCount="indefinite"></animateTransform><path d="M32.2490309931942 -7 L41.2490309931942 -7 L41.2490309931942 7 L32.2490309931942 7 A33 33 0 0 1 29.203704256113888 15.366966444989576 L29.203704256113888 15.366966444989576 L36.09810424418469 21.15205493216843 L27.09907770857314 31.876677135834125 L20.20467772050234 26.09158864865527 A33 33 0 0 1 12.493639734577986 30.543558505560124 L12.493639734577986 30.543558505560124 L14.05647333358036 39.40682828267 L0.26916479140945127 41.83790277000702 L-1.2936688075929226 32.97463299289715 A33 33 0 0 1 -10.062337670106023 31.428480087537885 L-10.062337670106023 31.428480087537885 L-14.562337670106022 39.22270872159783 L-26.686693323088164 32.22270872159784 L-22.186693323088164 24.42848008753789 A33 33 0 0 1 -27.910035448520958 17.607666547907574 L-27.910035448520958 17.607666547907574 L-36.367269035594134 20.685847837838594 L-41.1555510421535 7.53015114683588 L-32.69831745508032 4.451969856904861 A33 33 0 0 1 -32.69831745508032 -4.451969856904853 L-32.69831745508032 -4.451969856904853 L-41.1555510421535 -7.530151146835871 L-36.367269035594134 -20.685847837838583 L-27.91003544852096 -17.607666547907566 A33 33 0 0 1 -22.18669332308818 -24.428480087537874 L-22.18669332308818 -24.428480087537874 L-26.686693323088182 -32.22270872159782 L-14.562337670106047 -39.222708721597826 L-10.062337670106045 -31.428480087537878 A33 33 0 0 1 -1.293668807592938 -32.97463299289715 L-1.293668807592938 -32.97463299289715 L0.26916479140943195 -41.83790277000702 L14.056473333580342 -39.406828282670006 L12.493639734577972 -30.543558505560128 A33 33 0 0 1 20.204677720502332 -26.091588648655275 L20.204677720502332 -26.091588648655275 L27.099077708573134 -31.876677135834132 L36.09810424418468 -21.152054932168443 L29.203704256113884 -15.366966444989588 A33 33 0 0 1 32.2490309931942 -7.000000000000006 M0 -27A27 27 0 1 0 0 27 A27 27 0 1 0 0 -27" fill="#650204"></path></g></g>
<!-- [ldio] generated by https://loading.io/ --></svg>